<?xml version="1.0" encoding="UTF-8"?>
<svg viewBox="0 0 59 58" version="1.1" xmlns="http://www.w3.org/2000/svg" xmlns:xlink="http://www.w3.org/1999/xlink">
    <!-- Generator: sketchtool 52 (66869) - http://www.bohemiancoding.com/sketch -->
    <title>73BDF3AC-46D7-4F2F-AFD6-4F169465133C</title>
    <desc>Created with sketchtool.</desc>
    <g id="Page-2" stroke="none" stroke-width="1" fill="none" fill-rule="evenodd">
        <g id="Mobile" transform="translate(-131.000000, -553.000000)">
            <g id="Group-6" transform="translate(23.000000, 327.000000)">
                <g id="Group-15" transform="translate(108.600000, 226.200000)">
                    <path d="M17.2906077,-1.42108547e-14 L40.3447514,-1.42108547e-14 C49.8942099,-1.42108547e-14 57.6353591,7.75088764 57.6353591,17.3123596 L57.6353591,40.3955056 C57.6353591,49.9569775 49.8942099,57.7078652 40.3447514,57.7078652 L17.2906077,57.7078652 C7.74114917,57.7078652 0,49.9569775 0,40.3955056 L0,17.3123596 C0,7.75088764 7.74114917,-1.42108547e-14 17.2906077,-1.42108547e-14" id="Fill-17" fill="#FF3683"></path>
                    <path d="M31.1636906,39.8848584 C31.1636906,38.4017663 29.9627138,37.2 28.4814851,37.2 C27.0009768,37.2 25.8,38.4017663 25.8,39.8848584 C25.8,41.3679506 27.0009768,42.5704382 28.4814851,42.5704382 C29.9627138,42.5704382 31.1636906,41.3679506 31.1636906,39.8848584" id="Fill-34" fill="#FFFFFF"></path>
                    <path d="M33.6970034,35.178 C30.8058697,32.2839506 26.1186741,32.2839506 23.2282608,35.178 L21.208862,33.156782 C20.9077172,32.8552584 20.9386962,32.367627 21.2600133,32.0877438 C23.2599603,30.3492944 25.7879912,29.4 28.4622719,29.4 C31.1365526,29.4 33.6653039,30.3492944 35.6645305,32.0877438 C35.986568,32.367627 36.017547,32.8552584 35.7164023,33.156782 L33.6970034,35.178 Z" id="Fill-35" fill="#FFFFFF"></path>
                    <path d="M38.2533379,29.7828135 C32.9472826,24.4700831 24.3437644,24.4700831 19.0377091,29.7828135 L17.0139876,27.7558247 C16.7272517,27.4694494 16.7265312,26.9948022 17.0247942,26.7206899 C23.5793754,20.6931034 33.7116716,20.6931034 40.2662528,26.7206899 C40.5645158,26.9948022 40.5637953,27.4694494 40.2777798,27.7558247 L38.2533379,29.7828135 Z" id="Fill-36" fill="#FFFFFF"></path>
                    <path d="M43.1712014,25.2074579 C35.16565,17.1925567 22.1861671,17.1925567 14.1806158,25.2074579 L12.2541539,23.2785725 C11.9133848,22.9380961 11.9133848,22.3754444 12.265681,22.0472309 C21.4902202,13.450923 35.861597,13.450923 45.0861362,22.0472309 C45.4384323,22.3754444 45.4377119,22.9380961 45.0976633,23.2785725 L43.1712014,25.2074579 Z" id="Fill-37" fill="#FFFFFF"></path>
                </g>
            </g>
        </g>
    </g>
</svg>