<?xml version="1.0" encoding="UTF-8"?>
<svg viewBox="0 0 58 58" version="1.1" xmlns="http://www.w3.org/2000/svg" xmlns:xlink="http://www.w3.org/1999/xlink">
    <!-- Generator: sketchtool 52 (66869) - http://www.bohemiancoding.com/sketch -->
    <title>CFCD635F-E0B4-4C60-827E-9E1C894CE369</title>
    <desc>Created with sketchtool.</desc>
    <g id="Page-2" stroke="none" stroke-width="1" fill="none" fill-rule="evenodd">
        <g id="Mobile" transform="translate(-239.000000, -327.000000)">
            <g id="Group-6" transform="translate(23.000000, 327.000000)">
                <g id="Group-13" transform="translate(216.000000, 0.000000)">
                    <path d="M17.2906077,-1.42108547e-14 L40.3447514,-1.42108547e-14 C49.9266298,-1.42108547e-14 57.6353591,7.71842697 57.6353591,17.3123596 L57.6353591,40.3955056 C57.6353591,49.9894382 49.9266298,57.7078652 40.3447514,57.7078652 L17.2906077,57.7078652 C7.70872928,57.7078652 2.84217094e-14,49.9894382 2.84217094e-14,40.3955056 L2.84217094e-14,17.3123596 C2.84217094e-14,7.71842697 7.70872928,-1.42108547e-14 17.2906077,-1.42108547e-14" id="Fill-5" fill="#37BFFE"></path>
                    <path d="M35.5871767,42.2814936 C33.6419833,42.2093587 31.9122021,41.4880104 30.2559059,40.5502576 C27.9497711,39.1796958 25.8612098,37.4484599 23.9160164,35.5729542 C21.5385579,33.2646396 19.3044673,30.956325 17.5033623,28.2873363 C16.4226993,26.7725048 15.5581689,25.1134037 15.1979479,23.3100329 C14.694359,21.2181228 15.1266242,19.3426172 16.7829203,17.8999205 C17.7922595,16.9621677 18.9442463,16.0965497 20.0249093,15.2309318 C20.4578949,14.8702576 21.1055722,14.9423924 21.4657932,15.3752014 C23.1955745,17.250707 24.9239148,19.1983475 26.653696,21.1459879 C27.0852408,21.6509318 27.013917,22.2280104 26.5088872,22.7329542 C25.573033,23.670707 24.7077822,24.6084599 23.771928,25.4740778 C23.1955745,26.0511565 23.0514861,26.70037 23.2668982,27.4217183 C23.4830308,28.2152014 23.9160164,28.8644149 24.4203258,29.4414936 C25.5009888,30.8841902 26.7977844,32.1104823 28.2386684,33.12037 C28.815022,33.4810441 29.4634198,33.8417183 30.1110971,34.0581228 C30.7602153,34.2745273 31.3365689,34.0581228 31.8408783,33.6253138 C32.7054087,32.687561 33.6419833,31.821943 34.5785579,30.8841902 C35.154191,30.3071115 35.7305446,30.2349767 36.3796629,30.8120554 C38.2520916,32.4711565 40.0531966,34.1302576 41.9270662,35.7893587 C42.4313756,36.2221677 42.5034198,36.7992464 42.1431988,37.3041902 C41.2066242,38.6026172 40.2700496,39.9010441 39.0452982,40.9830666 C38.1087236,41.8486846 36.955296,42.2814936 35.5871767,42.2814936" id="Fill-7" fill="#FFFFFF"></path>
                </g>
            </g>
        </g>
    </g>
</svg>