<?xml version="1.0" encoding="UTF-8"?>
<svg viewBox="0 0 59 58" version="1.1" xmlns="http://www.w3.org/2000/svg" xmlns:xlink="http://www.w3.org/1999/xlink">
    <!-- Generator: sketchtool 52 (66869) - http://www.bohemiancoding.com/sketch -->
    <title>B4C83718-1EF7-4B9A-A26F-DA1BAB81F3B5</title>
    <desc>Created with sketchtool.</desc>
    <g id="Page-2" stroke="none" stroke-width="1" fill="none" fill-rule="evenodd">
        <g id="Mobile" transform="translate(-239.000000, -553.000000)">
            <g id="Group-6" transform="translate(23.000000, 327.000000)">
                <g id="Group-16" transform="translate(216.600000, 226.200000)">
                    <path d="M17.2906077,-7.10542736e-15 L40.3447514,-7.10542736e-15 C49.8942099,-7.10542736e-15 57.6353591,7.75088764 57.6353591,17.3123596 L57.6353591,40.3955056 C57.6353591,49.9569775 49.8942099,57.7078652 40.3447514,57.7078652 L17.2906077,57.7078652 C7.74186961,57.7078652 0,49.9569775 0,40.3955056 L0,17.3123596 C0,7.75088764 7.74186961,-7.10542736e-15 17.2906077,-7.10542736e-15" id="Fill-18" fill="#8B61F4"></path>
                    <path d="M22.7099095,40.1325843 C22.7099095,40.5343753 23.0355493,40.8539326 23.437556,40.8539326 L24.8647515,40.8539326 C25.2732421,40.8539326 25.5916775,40.5314899 25.5916775,40.1325843 C25.5916775,39.7315146 25.2667582,39.411236 24.8647515,39.411236 L23.437556,39.411236 C23.0290653,39.411236 22.7099095,39.7344 22.7099095,40.1325843 Z M27.0325615,40.1325843 C27.0325615,40.5343753 27.3582013,40.8539326 27.7602079,40.8539326 L29.1874035,40.8539326 C29.5958941,40.8539326 29.9143294,40.5314899 29.9143294,40.1325843 C29.9143294,39.7315146 29.5894101,39.411236 29.1874035,39.411236 L27.7602079,39.411236 C27.3517173,39.411236 27.0325615,39.7344 27.0325615,40.1325843 Z M31.3552134,40.1325843 C31.3552134,40.5343753 31.6808532,40.8539326 32.0828598,40.8539326 L33.5100554,40.8539326 C33.918546,40.8539326 34.2369814,40.5314899 34.2369814,40.1325843 C34.2369814,39.7315146 33.912062,39.411236 33.5100554,39.411236 L32.0828598,39.411236 C31.6743692,39.411236 31.3552134,39.7344 31.3552134,40.1325843 Z M31.3552134,36.8821888 C31.3552134,37.2832584 31.6808532,37.6035371 32.0828598,37.6035371 L33.5100554,37.6035371 C33.918546,37.6035371 34.2369814,37.280373 34.2369814,36.8821888 C34.2369814,36.4811191 33.912062,36.1608404 33.5100554,36.1608404 L32.0828598,36.1608404 C31.6743692,36.1608404 31.3552134,36.4832831 31.3552134,36.8821888 Z M27.0325615,36.8821888 C27.0325615,37.2832584 27.3582013,37.6035371 27.7602079,37.6035371 L29.1874035,37.6035371 C29.5958941,37.6035371 29.9143294,37.280373 29.9143294,36.8821888 C29.9143294,36.4811191 29.5894101,36.1608404 29.1874035,36.1608404 L27.7602079,36.1608404 C27.3517173,36.1608404 27.0325615,36.4832831 27.0325615,36.8821888 Z M22.7099095,36.8821888 C22.7099095,37.2832584 23.0355493,37.6035371 23.437556,37.6035371 L24.8647515,37.6035371 C25.2732421,37.6035371 25.5916775,37.280373 25.5916775,36.8821888 C25.5916775,36.4811191 25.2667582,36.1608404 24.8647515,36.1608404 L23.437556,36.1608404 C23.0290653,36.1608404 22.7099095,36.4832831 22.7099095,36.8821888 Z M22.7099095,33.6404494 C22.7099095,34.0422404 23.0355493,34.3617978 23.437556,34.3617978 L24.8647515,34.3617978 C25.2732421,34.3617978 25.5916775,34.0393551 25.5916775,33.6404494 C25.5916775,33.2393798 25.2667582,32.9191011 24.8647515,32.9191011 L23.437556,32.9191011 C23.0290653,32.9191011 22.7099095,33.2422652 22.7099095,33.6404494 Z M27.0325615,33.6404494 C27.0325615,34.0422404 27.3582013,34.3617978 27.7602079,34.3617978 L29.1874035,34.3617978 C29.5958941,34.3617978 29.9143294,34.0393551 29.9143294,33.6404494 C29.9143294,33.2393798 29.5894101,32.9191011 29.1874035,32.9191011 L27.7602079,32.9191011 C27.3517173,32.9191011 27.0325615,33.2422652 27.0325615,33.6404494 Z M31.3552134,33.6404494 C31.3552134,34.0422404 31.6808532,34.3617978 32.0828598,34.3617978 L33.5100554,34.3617978 C33.918546,34.3617978 34.2369814,34.0393551 34.2369814,33.6404494 C34.2369814,33.2393798 33.912062,32.9191011 33.5100554,32.9191011 L32.0828598,32.9191011 C31.6743692,32.9191011 31.3552134,33.2422652 31.3552134,33.6404494 Z M24.8712355,30.7550562 C25.6673239,30.7550562 26.3121195,30.1087281 26.3121195,29.3123596 C26.3121195,28.515991 25.6673239,27.8696629 24.8712355,27.8696629 C24.0758676,27.8696629 23.4303515,28.515991 23.4303515,29.3123596 C23.4303515,30.1087281 24.0758676,30.7550562 24.8712355,30.7550562 Z M32.0756554,30.7550562 C32.8717438,30.7550562 33.5165394,30.1087281 33.5165394,29.3123596 C33.5165394,28.515991 32.8717438,27.8696629 32.0756554,27.8696629 C31.2802874,27.8696629 30.6347714,28.515991 30.6347714,29.3123596 C30.6347714,30.1087281 31.2802874,30.7550562 32.0756554,30.7550562 Z M22.8230189,15.2301978 C22.8230189,15.7365843 23.2343913,16.1412607 23.7415825,16.1412607 L25.5455692,16.1412607 C26.0599648,16.1412607 26.4634123,15.7329775 26.4634123,15.2301978 C26.4634123,14.7230899 26.0527604,14.3184135 25.5455692,14.3184135 L23.7415825,14.3184135 C23.2264665,14.3184135 22.8230189,14.7266966 22.8230189,15.2301978 Z M30.4841991,15.2301978 C30.4841991,15.7365843 30.894851,16.1412607 31.4020421,16.1412607 L33.2060289,16.1412607 C33.7211449,16.1412607 34.1245924,15.7329775 34.1245924,15.2301978 C34.1245924,14.7230899 33.71322,14.3184135 33.2060289,14.3184135 L31.4020421,14.3184135 C30.8876466,14.3184135 30.4841991,14.7266966 30.4841991,15.2301978 Z M28.4734455,26.6556337 C30.9870676,26.6556337 33.0244775,24.6156607 33.0244775,22.0988764 C33.0244775,19.5820921 30.9870676,17.5421191 28.4734455,17.5421191 C25.9605438,17.5421191 23.9231339,19.5820921 23.9231339,22.0988764 C23.9231339,24.6156607 25.9605438,26.6556337 28.4734455,26.6556337 Z M19.2020775,14.1647663 C19.1502057,12.9694921 20.0759736,12 21.2755095,12 L35.6721018,12 C36.868756,12 37.7966852,12.9752629 37.7455339,14.1647663 L36.4926852,43.0179775 C36.4408134,44.2132517 35.4307537,45.1820225 34.2362609,45.1820225 L22.7113504,45.1820225 C21.5175781,45.1820225 20.5060775,44.2067596 20.4549261,43.0179775 L19.2020775,14.1647663 Z" id="Fill-19" fill="#FFFFFF"></path>
                    <path d="M28.681768,19.2 C30.2739448,19.2 31.5635359,20.4919348 31.5635359,22.0853933 C31.5635359,23.6788517 30.2739448,24.9707865 28.681768,24.9707865 C27.0903116,24.9707865 25.8,23.6788517 25.8,22.0853933 C25.8,20.4919348 27.0903116,19.2 28.681768,19.2" id="Fill-20" fill="#FFFFFF"></path>
                </g>
            </g>
        </g>
    </g>
</svg>