<?xml version="1.0" encoding="UTF-8"?>
<svg viewBox="0 0 58 59" version="1.1" xmlns="http://www.w3.org/2000/svg" xmlns:xlink="http://www.w3.org/1999/xlink">
    <!-- Generator: sketchtool 52 (66869) - http://www.bohemiancoding.com/sketch -->
    <title>9F4DFFA4-FC39-4708-A115-B0D693098D6A</title>
    <desc>Created with sketchtool.</desc>
    <g id="Page-2" stroke="none" stroke-width="1" fill="none" fill-rule="evenodd">
        <g id="Mobile" transform="translate(-131.000000, -327.000000)">
            <g id="Group-6" transform="translate(23.000000, 327.000000)">
                <g id="Group-12" transform="translate(108.000000, 0.600000)">
                    <path d="M17.2906077,-1.42108547e-14 L40.3447514,-1.42108547e-14 C49.9266298,-1.42108547e-14 57.6353591,7.71842697 57.6353591,17.3123596 L57.6353591,40.3955056 C57.6353591,49.9894382 49.9266298,57.7078652 40.3447514,57.7078652 L17.2906077,57.7078652 C7.70872928,57.7078652 2.84217094e-14,49.9894382 2.84217094e-14,40.3955056 L2.84217094e-14,17.3123596 C2.84217094e-14,7.71842697 7.70872928,-1.42108547e-14 17.2906077,-1.42108547e-14" id="Fill-3" fill="#FE9001"></path>
                    <path d="M40.4263028,32.4207472 C40.7000707,32.6948596 40.8535249,33.0656326 40.8535249,33.4522753 L40.8535249,42.0016955 C40.8535249,43.1991337 39.8802077,44.1657404 38.6921989,44.1657404 L32.9862983,44.1657404 C32.5900552,44.1657404 32.2658564,43.8411337 32.2658564,43.4443921 L32.2658564,34.1397202 C32.2658564,33.7422573 31.9416575,33.4183719 31.5454144,33.4183719 L25.5081105,33.4183719 C25.111147,33.4183719 24.7876685,33.7422573 24.7876685,34.1397202 L24.7876685,43.4443921 C24.7876685,43.8411337 24.4634696,44.1657404 24.0672265,44.1657404 L18.361326,44.1657404 C17.1725967,44.1657404 16.2,43.1991337 16.2,42.0016955 L16.2,33.4522753 C16.2,33.0656326 16.3534541,32.6948596 16.6265017,32.4207472 L27.6838453,21.3494933 C28.1492508,20.8835022 28.904274,20.8835022 29.3689591,21.3494933 L40.4263028,32.4207472 Z" id="Fill-32" fill="#FFFFFF"></path>
                    <path d="M39.7507812,23.7699169 L39.7507812,16.921436 C39.7507812,16.5225303 39.4287436,16.2000876 39.0303392,16.2000876 L36.1485713,16.2000876 C35.7508873,16.2000876 35.4281293,16.5225303 35.4281293,16.921436 L35.4281293,19.441827 L29.7841867,13.7907843 C28.9974641,13.0030719 27.7222818,13.0030719 26.9355591,13.7907843 L11.010189,29.7361888 C10.729937,30.0175146 10.729937,30.4741281 11.010189,30.7561753 L13.0483193,32.7961483 C13.3292917,33.0774742 13.7860519,33.0774742 14.0670243,32.7961483 L26.9333978,19.9128674 C27.7215613,19.1244337 28.9981845,19.1244337 29.7863481,19.9128674 L42.6527215,32.7961483 C42.9344144,33.0774742 43.3911746,33.0774742 43.6714265,32.7961483 L45.7095569,30.7561753 C45.9905293,30.4741281 45.9905293,30.0175146 45.7095569,29.7361888 L39.7507812,23.7699169 Z" id="Fill-33" fill="#FFFFFF"></path>
                </g>
            </g>
        </g>
    </g>
</svg>